<?xml version="1.0" standalone="no"?><!DOCTYPE svg PUBLIC "-//W3C//DTD SVG 1.1//EN" "http://www.w3.org/Graphics/SVG/1.1/DTD/svg11.dtd"><svg t="1700876541641" class="icon" viewBox="0 0 1024 1024" version="1.1" xmlns="http://www.w3.org/2000/svg" p-id="1681" xmlns:xlink="http://www.w3.org/1999/xlink" width="48" height="48"><path d="M511.982092 64.277956c-246.87876 0-447.729208 200.849424-447.729208 447.727161 0 51.070142 8.645914 101.220333 25.696242 149.055804 16.432251 46.096874 40.307008 89.118714 70.957075 127.863133 12.079106 15.328104 24.667819 29.460985 37.418214 42.00058 84.408435 83.055624 195.800431 128.797411 313.657676 128.797411 61.086264 0 120.342856-12.17939 176.122253-36.202527 53.81158-23.173792 102.037954-56.291051 143.338592-98.426707 12.124132-12.359492 24.079418-26.317389 36.555567-42.671868 60.021002-78.809927 91.746564-172.317601 91.746564-270.411733C959.746092 265.129426 758.880295 64.277956 511.982092 64.277956zM515.586177 278.175557c72.318072 0 131.154086 58.154491 131.154086 129.637546 0 71.472821-58.836013 129.62015-131.154086 129.62015-72.301699 0-131.122363-58.147328-131.122363-129.62015C384.463814 336.330048 443.284477 278.175557 515.586177 278.175557zM515.586177 594.965573c122.210389 0 232.435817 67.811432 288.292985 177.171142-74.584696 83.570347-180.819229 131.439588-291.896046 131.439588-108.484783 0-212.995045-46.013987-287.166325-126.341476C278.951735 666.425092 392.797619 594.965573 515.586177 594.965573zM702.879863 407.806963c0-102.438067-84.019579-185.77817-187.293687-185.77817-50.0233 0-97.04729 19.313881-132.409682 54.384631-35.373649 35.08303-54.854329 81.746816-54.854329 131.393539 0 58.31822 27.714202 113.166409 74.523297 148.252509-45.217854 14.089903-86.987167 36.319184-124.251885 66.145489-37.308721 29.860075-68.252477 65.830311-92.052532 106.989733-43.316551-64.630996-66.175165-139.587152-66.175165-217.188554 0-215.922724 175.679162-391.58756 391.617236-391.58756 215.922724 0 391.588583 175.664835 391.588583 391.58756 0 75.342965-21.563108 148.404981-62.413492 211.6934-23.946388-39.803541-54.632271-74.564229-91.28096-103.395882-36.617989-28.805046-77.527724-50.363038-121.69669-64.145949C675.099147 521.078773 702.879863 466.193745 702.879863 407.806963z" fill="#ffffff" p-id="1682"></path></svg>